<svg xmlns="http://www.w3.org/2000/svg" xmlns:xlink="http://www.w3.org/1999/xlink" version="1.1" x="0px" y="0px" viewBox="0 0 100 125" enable-background="new 0 0 100 100" xml:space="preserve"><path d="M91.549,41H8.451C3.784,41,0,44.823,0,49.539S3.784,59,8.451,59h83.098c4.667,0,8.451-4.746,8.451-9.461  S96.216,41,91.549,41z M8.451,29h83.098c4.667,0,8.451-4.746,8.451-9.461S96.216,11,91.549,11H8.451C3.784,11,0,14.823,0,19.539  S3.784,29,8.451,29z M91.549,71H8.451C3.784,71,0,74.823,0,79.539S3.784,89,8.451,89h83.098c4.667,0,8.451-4.746,8.451-9.461  S96.216,71,91.549,71z"/><text x="0" y="115" fill="#000000" font-size="5px" font-weight="bold" font-family="'Helvetica Neue', Helvetica, Arial-Unicode, Arial, Sans-serif">Created by DewDrops</text><text x="0" y="120" fill="#000000" font-size="5px" font-weight="bold" font-family="'Helvetica Neue', Helvetica, Arial-Unicode, Arial, Sans-serif">from the Noun Project</text></svg>